<?xml version="1.0" encoding="utf-8"?>
<!-- Generator: Adobe Illustrator 19.1.0, SVG Export Plug-In . SVG Version: 6.00 Build 0)  -->
<svg version="1.1" id="Camada_1" xmlns="http://www.w3.org/2000/svg" xmlns:xlink="http://www.w3.org/1999/xlink" x="0px" y="0px"
	 width="24px" height="24px" viewBox="-237 239 24 24" style="enable-background:new -237 239 24 24;" xml:space="preserve">
<path d="M-225,241c-5.5,0-10,4.5-10,10s4.5,10,10,10s10-4.5,10-10S-219.5,241-225,241z M-225,244c1.7,0,3,1.3,3,3s-1.3,3-3,3
	s-3-1.3-3-3S-226.7,244-225,244z M-225,258.2c-2.5,0-4.7-1.3-6-3.2c0-2,4-3.1,6-3.1c2,0,6,1.1,6,3.1
	C-220.3,256.9-222.5,258.2-225,258.2z"/>
</svg>
