<?xml version="1.0" encoding="utf-8"?>
<!-- Generator: Adobe Illustrator 19.1.0, SVG Export Plug-In . SVG Version: 6.00 Build 0)  -->
<svg version="1.1" id="Camada_1" xmlns="http://www.w3.org/2000/svg" xmlns:xlink="http://www.w3.org/1999/xlink" x="0px" y="0px"
	 width="24px" height="24px" viewBox="-237 239 24 24" style="enable-background:new -237 239 24 24;" xml:space="preserve">
<path d="M-216.3,246.2l-4.6-3.9l1.3-1.5l4.6,3.9L-216.3,246.2z M-229.1,242.4l-1.3-1.5l-4.6,3.9l1.3,1.5L-229.1,242.4z M-216,252
	c0,5-4,9-9,9c-5,0-9-4-9-9s4-9,9-9S-216,247-216,252z M-218,252c0-3.9-3.1-7-7-7s-7,3.1-7,7s3.1,7,7,7S-218,255.9-218,252z
	 M-224.5,247h-1.5v6l4.8,2.8l0.8-1.2l-4-2.4V247z"/>
</svg>
