<?xml version="1.0" encoding="UTF-8" standalone="no"?>
<svg width="48px" height="48px" viewBox="0 0 48 48" version="1.1" xmlns="http://www.w3.org/2000/svg" xmlns:xlink="http://www.w3.org/1999/xlink" xmlns:sketch="http://www.bohemiancoding.com/sketch/ns">
    <!-- Generator: Sketch 3.4.4 (17249) - http://www.bohemiancoding.com/sketch -->
    <title>icon-pencil</title>
    <desc>Created with Sketch.</desc>
    <defs></defs>
    <g id="Page-1" stroke="none" stroke-width="1" fill="none" fill-rule="evenodd" sketch:type="MSPage">
        <g id="icon-pencil" sketch:type="MSArtboardGroup" fill="#000000">
            <g id="edit41" sketch:type="MSLayerGroup" transform="translate(8.000000, 8.000000)">
                <g id="Pencil" sketch:type="MSShapeGroup">
                    <path d="M31.651,8.651 L23.348,0.348 C23.114,0.114 22.807,0 22.5,0 C22.193,0 21.886,0.114 21.652,0.349 L0,22 L0,32 L10,32 L31.651,10.349 C31.886,10.114 32,9.807 32,9.5 C32,9.192 31.886,8.886 31.651,8.651 L31.651,8.651 Z M3,29 L3,24.121 L7.879,29 L3,29 L3,29 Z M10.561,27.44 L4.561,21.44 L18.44,7.56 L24.44,13.56 L10.561,27.44 L10.561,27.44 Z M26.561,11.44 L20.561,5.44 L22.5,3.5 L28.5,9.5 L26.561,11.44 L26.561,11.44 Z" id="Shape"></path>
                </g>
            </g>
        </g>
    </g>
</svg>