<?xml version="1.0" encoding="UTF-8" standalone="no"?>
<svg width="48px" height="48px" viewBox="0 0 48 48" version="1.1" xmlns="http://www.w3.org/2000/svg" xmlns:xlink="http://www.w3.org/1999/xlink" xmlns:sketch="http://www.bohemiancoding.com/sketch/ns">
    <!-- Generator: Sketch 3.4.4 (17249) - http://www.bohemiancoding.com/sketch -->
    <title>icon-delete</title>
    <desc>Created with Sketch.</desc>
    <defs></defs>
    <g id="Page-1" stroke="none" stroke-width="1" fill="none" fill-rule="evenodd" sketch:type="MSPage">
        <g id="icon-delete" sketch:type="MSArtboardGroup" fill="#000000">
            <g id="cooking20" sketch:type="MSLayerGroup" transform="translate(11.000000, 8.000000)">
                <g id="Capa_1" sketch:type="MSShapeGroup">
                    <g id="Recycle_x5F_Bin">
                        <path d="M24.5,5 L19,5 L19,2 C19,0.896 18.104,0 17,0 L9,0 C7.896,0 7,0.896 7,2 L7,5 L1.5,5 C0.672,5 0,5.671 0,6.5 C0,7.329 0.672,8 1.5,8 L2,8 L2,30 C2,31.105 2.896,32 4,32 L22,32 C23.104,32 24,31.104 24,30 L24,8 L24.5,8 C25.328,8 26,7.329 26,6.5 C26,5.671 25.328,5 24.5,5 L24.5,5 Z M10,3 L16,3 L16,5 L10,5 L10,3 L10,3 Z M21,29 L5,29 L5,8 L21,8 L21,29 L21,29 Z" id="Shape"></path>
                    </g>
                </g>
            </g>
        </g>
    </g>
</svg>