<?xml version="1.0" encoding="UTF-8" standalone="no"?>
<svg width="48px" height="48px" viewBox="0 0 48 48" version="1.1" xmlns="http://www.w3.org/2000/svg" xmlns:xlink="http://www.w3.org/1999/xlink" xmlns:sketch="http://www.bohemiancoding.com/sketch/ns">
    <!-- Generator: Sketch 3.4.4 (17249) - http://www.bohemiancoding.com/sketch -->
    <title>icon-inbox</title>
    <desc>Created with Sketch.</desc>
    <defs></defs>
    <g id="Page-1" stroke="none" stroke-width="1" fill="none" fill-rule="evenodd" sketch:type="MSPage">
        <g id="icon-inbox" sketch:type="MSArtboardGroup" fill="#000000">
            <g id="tray15" sketch:type="MSLayerGroup" transform="translate(8.000000, 11.000000)">
                <g id="Capa_1" sketch:type="MSShapeGroup">
                    <g id="Archive">
                        <path d="M24.599,0.824 C24.223,0.306 23.622,0 22.981,0 L9.019,0 C8.379,0 7.778,0.306 7.401,0.824 L0,11 L0,25 C0,26.104 0.896,27 2,27 L30,27 C31.104,27 32,26.105 32,25 L32,11 L24.599,0.824 L24.599,0.824 Z M9.528,3 L22.472,3 L27.563,10 L23.5,10 C23.102,10 22.721,10.158 22.439,10.439 L18.879,14 L13.121,14 L9.56,10.44 C9.279,10.158 8.898,10 8.5,10 L4.437,10 L9.528,3 L9.528,3 Z M29,24 L3,24 L3,13 L7.879,13 L11.44,16.56 C11.721,16.842 12.102,17 12.5,17 L19.5,17 C19.898,17 20.279,16.842 20.561,16.56 L24.121,13 L29,13 L29,24 L29,24 Z" id="Shape"></path>
                    </g>
                </g>
            </g>
        </g>
    </g>
</svg>