<?xml version="1.0" encoding="UTF-8" standalone="no"?>
<svg width="48px" height="48px" viewBox="0 0 48 48" version="1.1" xmlns="http://www.w3.org/2000/svg" xmlns:xlink="http://www.w3.org/1999/xlink" xmlns:sketch="http://www.bohemiancoding.com/sketch/ns">
    <!-- Generator: Sketch 3.4.4 (17249) - http://www.bohemiancoding.com/sketch -->
    <title>icon-cloud-up</title>
    <desc>Created with Sketch.</desc>
    <defs></defs>
    <g id="Page-1" stroke="none" stroke-width="1" fill="none" fill-rule="evenodd" sketch:type="MSPage">
        <g id="icon-cloud-up" sketch:type="MSArtboardGroup" fill="#000000">
            <g id="upload83" sketch:type="MSLayerGroup" transform="translate(7.000000, 8.000000)">
                <g id="Capa_1" sketch:type="MSShapeGroup">
                    <g id="Cloud_x5F_upload">
                        <path d="M18.56,13.44 C18.289,13.168 17.914,13 17.5,13 C17.086,13 16.711,13.168 16.44,13.44 L12.44,17.44 C12.168,17.711 12,18.086 12,18.5 C12,19.328 12.672,20 13.5,20 C13.914,20 14.289,19.832 14.56,19.56 L16,18.121 L16,27.512 C15.397,27.968 15,28.686 15,29.5 C15,30.881 16.119,32 17.5,32 C18.881,32 20,30.881 20,29.5 C20,28.686 19.604,27.968 19,27.512 L19,18.121 L20.44,19.56 C20.711,19.832 21.086,20 21.5,20 C22.329,20 23,19.328 23,18.5 C23,18.086 22.832,17.711 22.561,17.44 L18.56,13.44 L18.56,13.44 Z M30,11.5 C30,7.44 26.773,4.143 22.746,4.013 C20.823,1.572 17.849,0 14.5,0 C8.919,0 4.368,4.357 4.032,9.854 C1.637,11.106 0,13.609 0,16.5 C0,20.643 3.357,24 7.5,24 L9.5,24 C10.328,24 11,23.328 11,22.5 C11,21.672 10.328,21 9.5,21 L7.5,21 C5.019,21 3,18.981 3,16.5 C3,14.821 3.928,13.293 5.422,12.513 L6.923,11.728 L7.027,10.037 C7.268,6.091 10.551,3 14.5,3 C16.807,3 18.953,4.046 20.39,5.869 L21.254,6.966 L22.65,7.011 C25.089,7.09 27,9.062 27,11.5 L27,13.499 L28.846,14.269 C30.154,14.815 31,16.083 31,17.5 C31,19.43 29.43,21 27.5,21 L25.5,21 C24.672,21 24,21.672 24,22.5 C24,23.328 24.672,24 25.5,24 L27.5,24 C31.09,24 34,21.09 34,17.5 C34,14.796 32.349,12.48 30,11.5 L30,11.5 Z" id="Shape"></path>
                    </g>
                </g>
            </g>
        </g>
    </g>
</svg>