<?xml version="1.0" encoding="UTF-8" standalone="no"?>
<svg width="48px" height="48px" viewBox="0 0 48 48" version="1.1" xmlns="http://www.w3.org/2000/svg" xmlns:xlink="http://www.w3.org/1999/xlink" xmlns:sketch="http://www.bohemiancoding.com/sketch/ns">
    <!-- Generator: Sketch 3.4.4 (17249) - http://www.bohemiancoding.com/sketch -->
    <title>icon-funnel</title>
    <desc>Created with Sketch.</desc>
    <defs></defs>
    <g id="Page-1" stroke="none" stroke-width="1" fill="none" fill-rule="evenodd" sketch:type="MSPage">
        <g id="icon-funnel" sketch:type="MSArtboardGroup" fill="#000000">
            <g id="spam7" sketch:type="MSLayerGroup" transform="translate(9.000000, 8.000000)">
                <g id="Capa_1" sketch:type="MSShapeGroup">
                    <g id="Funnel">
                        <path d="M15,0 C11.481,0 0,0.324 0,4.5 L0,7.5 C0,7.722 0.049,7.941 0.145,8.143 C2.445,13.001 6.279,17.032 11,19.582 L11,29 C11,29.246 11.06,29.488 11.177,29.706 C11.932,31.121 13.397,32 15,32 C16.603,32 18.068,31.121 18.823,29.706 C18.94,29.488 19,29.246 19,29 L19,19.582 C23.721,17.032 27.555,13.001 29.855,8.143 C29.951,7.941 30,7.722 30,7.5 L30,4.5 C30,0.324 18.519,0 15,0 L15,0 Z M15,3 C20.922,3 24.854,3.839 26.423,4.5 C24.854,5.161 20.922,6 15,6 C9.078,6 5.146,5.161 3.577,4.5 C5.146,3.839 9.078,3 15,3 L15,3 Z M16.838,17.322 C16.325,17.574 16,18.097 16,18.668 L16,28.549 C15.5,29.115 14.5,29.115 14,28.549 L14,18.668 C14,18.097 13.675,17.574 13.162,17.322 C8.901,15.224 5.404,11.771 3.221,7.562 C6.89,8.858 12.678,9 15,9 C17.322,9 23.11,8.858 26.779,7.562 C24.596,11.772 21.099,15.225 16.838,17.322 L16.838,17.322 Z" id="Shape"></path>
                    </g>
                </g>
            </g>
        </g>
    </g>
</svg>