<?xml version="1.0" encoding="utf-8"?>
<!-- Generator: Adobe Illustrator 19.1.0, SVG Export Plug-In . SVG Version: 6.00 Build 0)  -->
<svg version="1.1" id="Camada_1" xmlns="http://www.w3.org/2000/svg" xmlns:xlink="http://www.w3.org/1999/xlink" x="0px" y="0px"
	 viewBox="0 0 211.4 37.3" style="enable-background:new 0 0 211.4 37.3;" xml:space="preserve">
<style type="text/css">
	.st0{fill-rule:evenodd;clip-rule:evenodd;fill:#FFFFFF;}
</style>
<path class="st0" d="M138,15.1l17.5-15l-38,0.1l17.9,14.9C136,15.8,137.2,15.9,138,15.1"/>
<path class="st0" d="M135.3,31.4l-6.8,5.9l16.8,0l-7-5.8C137.4,30.6,136.1,30.6,135.3,31.4"/>
<path class="st0" d="M138.3,18.9c-0.8,0.8-2.2,0.8-3,0L112.8,0.1l-9.5,0l32,26.8c0.8,0.8,2.2,0.8,3,0L169.5,0l-9.3,0L138.3,18.9z"/>
<path class="st0" d="M60.7,3v21.5c0,1.6,1.3,3,3,3h37.5v-3.1H68v-8.3h28.8v-4.4H68V3.1h33.2V0H63.7C62,0,60.7,1.4,60.7,3"/>
<rect x="48.6" y="0" class="st0" width="7.4" height="27.4"/>
<path class="st0" d="M39.9,0H3C1.3,0,0,1.4,0,3v12.8h36.3v4.9v3.5H6.5v-2.5H0v2.8c0,1.6,1.3,3,3,3h36.9c1.6,0,3-1.3,3-3v-13H6.5V11
	V5.7V3.1h29.8v2.5h6.6V3C42.8,1.4,41.5,0,39.9,0"/>
<path class="st0" d="M211.4,3.1V0h-37.5c-1.6,0-3,1.3-3,3v21.5c0,1.6,1.3,3,3,3h37.5v-3.1h-33.2v-8.3H207v-4.4h-28.8V3.1H211.4z"/>
</svg>
